<?xml version="1.0" encoding="iso-8859-1"?>
<!-- Uploaded to: SVG Repo, www.svgrepo.com, Generator: SVG Repo Mixer Tools -->
<svg version="1.1" id="Layer_1" xmlns="http://www.w3.org/2000/svg" xmlns:xlink="http://www.w3.org/1999/xlink" 
	 viewBox="0 0 512 512" xml:space="preserve">
<path style="fill:#D6D6D6;" d="M392.464,512h-224c-17.6,0-32-14.4-32-32V32c0-17.6,14.4-32,32-32h224c17.6,0,32,14.4,32,32v448
	C424.464,497.6,410.064,512,392.464,512z"/>
<rect x="159.92" y="50.672" style="fill:#0BA4E0;" width="241.28" height="372"/>
<g>
	<path style="fill:#999999;" d="M280.64,489.456c-12.496,0-22.672-10.176-22.672-22.672s10.16-22.672,22.672-22.672
		s22.672,10.176,22.672,22.672S293.136,489.456,280.64,489.456z M280.64,452.112c-8.08,0-14.672,6.576-14.672,14.672
		s6.576,14.672,14.672,14.672s14.672-6.576,14.672-14.672S288.72,452.112,280.64,452.112z"/>
	<circle style="fill:#999999;" cx="280.592" cy="25.328" r="7.792"/>
	<circle style="fill:#999999;" cx="337.28" cy="25.328" r="7.792"/>
	<circle style="fill:#999999;" cx="361.888" cy="25.328" r="7.792"/>
</g>
<g>
	<polygon style="fill:#333333;" points="301.968,294.848 301.968,368.224 209.008,294.848 	"/>
	<path style="fill:#333333;" d="M334.992,307.408H101.184c-7.504,0-13.648-6.144-13.648-13.648V133.328
		c0-7.504,6.144-13.648,13.648-13.648h233.808c7.504,0,13.648,6.144,13.648,13.648V293.76
		C348.64,301.264,342.512,307.408,334.992,307.408z"/>
</g>
<g>
	<circle style="fill:#FFFFFF;" cx="150.432" cy="213.552" r="18.832"/>
	<circle style="fill:#FFFFFF;" cx="218.096" cy="213.552" r="18.832"/>
	<circle style="fill:#FFFFFF;" cx="285.744" cy="213.552" r="18.832"/>
</g>
</svg>