<svg xmlns="http://www.w3.org/2000/svg" xmlns:xlink="http://www.w3.org/1999/xlink" viewBox="0,0,256,256" width="144px" height="144px" fill-rule="nonzero"><g fill="none" fill-rule="nonzero" stroke="none" stroke-width="1" stroke-linecap="butt" stroke-linejoin="miter" stroke-miterlimit="10" stroke-dasharray="" stroke-dashoffset="0" font-family="none" font-weight="none" font-size="none" text-anchor="none" style="mix-blend-mode: normal"><g transform="scale(5.33333,5.33333)"><path d="M40,45h-32v-42h22l10,10z" fill="#90caf9"></path><path d="M38.5,14h-9.5v-9.5z" fill="#e1f5fe"></path></g></g><g fill="none" fill-rule="nonzero" stroke="none" stroke-width="1" stroke-linecap="butt" stroke-linejoin="miter" stroke-miterlimit="10" stroke-dasharray="" stroke-dashoffset="0" font-family="none" font-weight="none" font-size="none" text-anchor="none" style="mix-blend-mode: normal"><g transform="translate(134.66667,189.66667) scale(3.25926,3.25926)" id="overlay"><path d="M18,18h-18v-18h15l3,3z" fill="#ff3d00"></path><path d="M15.208,9h-12.416c-0.438,0 -0.792,0.354 -0.792,0.792v5.417c0,0.437 0.354,0.791 0.792,0.791h12.417c0.437,0 0.791,-0.354 0.791,-0.792v-5.417c0,-0.437 -0.354,-0.791 -0.792,-0.791z" fill="#ffffff"></path><path d="M2,0v4.208c0,0.438 0.354,0.792 0.792,0.792h9.417c0.437,0 0.791,-0.354 0.791,-0.792v-4.208z" fill="#dd2c00"></path><path d="M6,0v4.208c0,0.438 0.354,0.792 0.792,0.792h6.417c0.437,0 0.791,-0.354 0.791,-0.792v-4.208z" fill="#b0bec5"></path><path transform="translate(11,2.5)" d="M-1,1.5v-3h2v3z" fill="#263238"></path><path transform="translate(9,12)" d="M-5,1v-2h10v2z" fill="#cfd8dc"></path></g></g></svg>