<svg xmlns="http://www.w3.org/2000/svg" xmlns:xlink="http://www.w3.org/1999/xlink" viewBox="0,0,256,256" width="144px" height="144px" fill-rule="nonzero"><g fill="none" fill-rule="nonzero" stroke="none" stroke-width="1" stroke-linecap="butt" stroke-linejoin="miter" stroke-miterlimit="10" stroke-dasharray="" stroke-dashoffset="0" font-family="none" font-weight="none" font-size="none" text-anchor="none" style="mix-blend-mode: normal"><g transform="scale(5.33333,5.33333)"><path d="M40,45h-32v-42h22l10,10z" fill="#90caf9"></path><path d="M38.5,14h-9.5v-9.5z" fill="#e1f5fe"></path></g></g><g fill="none" fill-rule="nonzero" stroke="none" stroke-width="1" stroke-linecap="butt" stroke-linejoin="miter" stroke-miterlimit="10" stroke-dasharray="" stroke-dashoffset="0" font-family="none" font-weight="none" font-size="none" text-anchor="none" style="mix-blend-mode: normal"><g transform="translate(131.33333,180.33333) scale(3.15223,3.15223)" id="overlay"><path d="M21.995,20.218l-6.669,-6.669c1.047,-1.413 1.674,-3.156 1.674,-5.049c0,-4.694 -3.806,-8.5 -8.5,-8.5c-4.694,0 -8.5,3.806 -8.5,8.5c0,4.694 3.806,8.5 8.5,8.5c1.893,0 3.636,-0.627 5.049,-1.674l6.669,6.669z" fill="#616161"></path><path d="M15,8.5c0,3.6 -2.9,6.5 -6.5,6.5c-3.6,0 -6.5,-2.9 -6.5,-6.5c0,-3.6 2.9,-6.5 6.5,-6.5c3.6,0 6.5,2.9 6.5,6.5" fill="#bbdefb"></path><path d="M11,7.5c-0.4,0 -0.8,-0.1 -1.1,-0.4c-0.8,-0.8 -2,-0.8 -2.8,0c-0.6,0.6 -1.6,0.6 -2.1,0c-0.6,-0.6 -0.6,-1.6 0,-2.1c1.9,-2 5.1,-2 7,0c0.6,0.6 0.6,1.5 0,2.1c-0.3,0.3 -0.6,0.4 -1,0.4z" fill="#e3f2fd"></path><path transform="translate(19.05305,19.05291) rotate(45) scale(0.99999,0.99999)" d="M-2.904,1.2565v-2.513h5.808v2.513z" fill="#37474f"></path></g></g></svg>