<svg xmlns="http://www.w3.org/2000/svg" xmlns:xlink="http://www.w3.org/1999/xlink" viewBox="0,0,256,256" width="144px" height="144px" fill-rule="nonzero"><g fill="none" fill-rule="nonzero" stroke="none" stroke-width="1" stroke-linecap="butt" stroke-linejoin="miter" stroke-miterlimit="10" stroke-dasharray="" stroke-dashoffset="0" font-family="none" font-weight="none" font-size="none" text-anchor="none" style="mix-blend-mode: normal"><g transform="scale(5.33333,5.33333)"><path d="M40,45h-32v-42h22l10,10z" fill="#e22c0f"></path><path d="M38.5,14h-9.5v-9.5z" fill="#e1f5fe"></path></g></g><g fill="#f8f2f2" fill-rule="nonzero" stroke="none" stroke-width="1" stroke-linecap="butt" stroke-linejoin="miter" stroke-miterlimit="10" stroke-dasharray="" stroke-dashoffset="0" font-family="none" font-weight="none" font-size="none" text-anchor="none" style="mix-blend-mode: normal"><g><path d="M100.63,149.01333h-5.48v10.69h-6.25v-30.34h11.83c2.28,0 4.28333,0.41667 6.01,1.25c1.73333,0.83333 3.06333,2.02 3.99,3.56c0.93333,1.53333 1.4,3.28 1.4,5.24v0c0,2.96667 -1.01667,5.31 -3.05,7.03c-2.04,1.71333 -4.85667,2.57 -8.45,2.57zM95.15,134.43333v9.52h5.58c1.65333,0 2.91333,-0.39 3.78,-1.17c0.87333,-0.78 1.31,-1.89 1.31,-3.33v0c0,-1.48667 -0.44,-2.69 -1.32,-3.61c-0.87333,-0.91333 -2.08,-1.38333 -3.62,-1.41v0zM125.82,159.70333h-9.4v-30.34h9.33c2.66667,0 5.05333,0.60333 7.16,1.81c2.10667,1.2 3.75,2.90667 4.93,5.12c1.18,2.21333 1.77,4.73 1.77,7.55v0v1.4c0,2.82 -0.58,5.32667 -1.74,7.52c-1.16,2.19333 -2.79667,3.89333 -4.91,5.1c-2.11333,1.21333 -4.49333,1.82667 -7.14,1.84zM125.75,134.43333h-3.08v20.25h3.02c2.44667,0 4.31333,-0.8 5.6,-2.4c1.29333,-1.6 1.95333,-3.88333 1.98,-6.85v0v-1.61c0,-3.08 -0.63667,-5.41667 -1.91,-7.01c-1.28,-1.58667 -3.15,-2.38 -5.61,-2.38zM162.4,142.26333v5.04h-12v12.4h-6.25v-30.34h19.75v5.07h-13.5v7.83z"></path></g></g></svg>