<svg xmlns="http://www.w3.org/2000/svg" xmlns:xlink="http://www.w3.org/1999/xlink" viewBox="0,0,256,256" width="144px" height="144px" fill-rule="nonzero"><defs><clipPath id="clip-1"><path d="M0,256v-256h256v256zM160.53326,189.3337c-12.90651,0 -23.46637,10.55987 -23.46637,23.46637c0,5.27993 1.75998,10.26654 4.9866,14.37315l-15.8398,15.8398c-1.17332,1.17332 -1.17332,2.9333 0,4.10662c0.58666,0.58666 1.17332,0.87999 2.05331,0.87999c0.87999,0 1.46665,-0.29333 2.05331,-0.87999l15.8398,-15.8398c4.10662,3.22663 9.09322,4.9866 14.37315,4.9866c12.90651,0 23.46637,-10.55987 23.46637,-23.46637c0,-12.90651 -10.55987,-23.46637 -23.46637,-23.46637z" id="overlayBgMask" fill="none"></path></clipPath></defs><g transform=""><g clip-path="url(#clip-1)" fill="none" fill-rule="nonzero" stroke="none" stroke-width="1" stroke-linecap="butt" stroke-linejoin="miter" stroke-miterlimit="10" stroke-dasharray="" stroke-dashoffset="0" font-family="none" font-weight="none" font-size="none" text-anchor="none" style="mix-blend-mode: normal"><g transform="scale(5.33333,5.33333)"><path d="M36,12v5h1v25c0,0.55 -0.45,1 -1,1h-25c-2.76,0 -5,-2.24 -5,-5v-28c0,-2.76 2.24,-5 5,-5h21c2.76,0 5,2.24 5,5v2z" fill-opacity="0.54902" fill="#5c7cfa"></path><path d="M43,22v1h-1v16c0,1.66 -1.34,3 -3,3v1h-22c-2.76,0 -5,-2.24 -5,-5v-16c0,-2.76 2.24,-5 5,-5h21c2.76,0 5,2.24 5,5z" fill-opacity="0.54902" fill="#5c7cfa"></path><path d="M29,22h-17c-0.553,0 -1,-0.448 -1,-1c0,-0.552 0.447,-1 1,-1h17c0.553,0 1,0.448 1,1c0,0.552 -0.447,1 -1,1z" fill="#324561"></path><path d="M29,16h-17c-0.553,0 -1,-0.448 -1,-1c0,-0.552 0.447,-1 1,-1h17c0.553,0 1,0.448 1,1c0,0.552 -0.447,1 -1,1z" fill="#324561"></path><path d="M29,35h-5c-0.553,0 -1,-0.448 -1,-1c0,-0.552 0.447,-1 1,-1h5c0.553,0 1,0.448 1,1c0,0.552 -0.447,1 -1,1z" fill="#324561"></path><path d="M29,29h-5c-0.553,0 -1,-0.448 -1,-1c0,-0.552 0.447,-1 1,-1h5c0.553,0 1,0.448 1,1c0,0.552 -0.447,1 -1,1z" fill="#324561"></path><path d="M18,36h-5c-1.103,0 -2,-0.961 -2,-2.143v-5.714c0,-1.182 0.897,-2.143 2,-2.143h5c1.103,0 2,0.961 2,2.143v5.714c0,1.182 -0.897,2.143 -2,2.143zM13.009,28c0.025,0.004 -0.009,0.054 -0.009,0.143v5.714c0,0.098 0.041,0.148 0.052,0.156l4.939,-0.013c-0.025,-0.004 0.009,-0.054 0.009,-0.143v-5.714c0,-0.098 -0.041,-0.148 -0.052,-0.156z" fill="#324561"></path><path d="M39,43c-2.206,0 -4,-1.794 -4,-4v-27c0,-0.552 0.447,-1 1,-1c0.553,0 1,0.448 1,1v27c0,1.103 0.897,2 2,2c1.103,0 2,-0.897 2,-2v-16c0,-0.552 0.447,-1 1,-1c0.553,0 1,0.448 1,1v16c0,2.206 -1.794,4 -4,4z" fill="#324561"></path></g></g><g fill="#324561" fill-rule="nonzero" stroke="none" stroke-width="1" stroke-linecap="butt" stroke-linejoin="miter" stroke-miterlimit="10" stroke-dasharray="" stroke-dashoffset="0" font-family="none" font-weight="none" font-size="none" text-anchor="none" style="mix-blend-mode: normal"><g transform="translate(125.33407,189.3337) scale(2.9333,2.9333)" id="overlay"><path d="M12,16c-4.411,0 -8,-3.589 -8,-8c0,-4.411 3.589,-8 8,-8c4.411,0 8,3.589 8,8c0,4.411 -3.589,8 -8,8zM12,2c-3.309,0 -6,2.691 -6,6c0,3.309 2.691,6 6,6c3.309,0 6,-2.691 6,-6c0,-3.309 -2.691,-6 -6,-6z"></path><path d="M1,20c-0.256,0 -0.512,-0.098 -0.707,-0.293c-0.391,-0.391 -0.391,-1.023 0,-1.414l6,-6c0.391,-0.391 1.023,-0.391 1.414,0c0.391,0.391 0.391,1.023 0,1.414l-6,6c-0.195,0.195 -0.451,0.293 -0.707,0.293z"></path></g></g></g></svg>